<?xml version="1.0" encoding="utf-8"?>
<!-- Generator: Adobe Illustrator 24.2.1, SVG Export Plug-In . SVG Version: 6.00 Build 0)  -->
<svg version="1.1" id="Layer_1" xmlns="http://www.w3.org/2000/svg" xmlns:xlink="http://www.w3.org/1999/xlink" x="0px" y="0px"
	 viewBox="0 0 114 126" style="enable-background:new 0 0 114 126;" xml:space="preserve">
<style type="text/css">
	.st0{fill:#FFFFFF;}
</style>
<path class="st0" d="M110,29.4c5-3.8,4-24.2,3.8-28.4l-0.1-0.8l-0.8-0.1c-5.1-0.9-12.5,8-16.6,13.7C93.7,12.6,90.9,12,88,12
	s-5.7,0.6-8.3,1.7C75.5,8,68.1-0.8,63.1,0.1l-0.8,0.1L62.2,1C62,5.2,61,25.5,66,29.4c-0.1,0.4-0.3,0.8-0.4,1.2
	c-1.2,3.9-0.4,8,2.2,11l0.7,0.8C64.9,47.1,57,54.8,39.7,65.1c-15.1,9.1-21.7,22.2-23.9,34C15.2,99,14.6,99,14,99
	c-7.7,0-14,5.4-14,12s6.3,12,14,12c1.2,0,2.5-0.1,3.7-0.4c1.3,2.1,3.7,3.4,6.3,3.4H55h1.7H72l0.2-0.6c0.5-1.3,0.8-2.7,0.8-4.1
	c0-3.3-1.4-6.3-3.9-8.3c2.2-4.5,5.9-9.4,10.9-14.6v14.5c-2.4,1.9-4,4.9-4,8.4c0,1.4,0.3,2.8,0.8,4.1L77,126h14.8H94h8l0.2-0.6
	c0.5-1.3,0.8-2.7,0.8-4.1c0-3.5-1.6-6.7-4.3-8.6c-0.2-0.2-0.4-0.3-0.7-0.4v-33c8.7-13.3,8.6-26.5,7.4-34.3l2.9-3.4
	c2.6-3,3.4-7.2,2.2-11C110.3,30.2,110.2,29.8,110,29.4z M99,25c3.5,0,6.4,2.6,6.9,6H92.1C92.6,27.6,95.5,25,99,25z M101.8,33
	c-0.4,1.2-1.5,2-2.8,2s-2.4-0.8-2.8-2H101.8z M94.1,33c0.5,2.3,2.5,4,4.9,4s4.4-1.7,4.9-4h2c-0.5,3.4-3.4,6-6.9,6s-6.4-2.6-6.9-6
	H94.1z M100,23.1L100,23.1c-3.3-2.3-7-3.6-11-3.9V14c8.8,0.5,16.3,6.9,19.5,17.1c0.4,1.4,0.5,2.8,0.4,4.2c-0.3-0.9-0.6-1.8-0.9-2.6
	c0-0.3,0-0.5,0-0.8C108,27.4,104.5,23.5,100,23.1z M72.1,33c0.5,2.3,2.5,4,4.9,4s4.4-1.7,4.9-4h2c-0.5,3.4-3.4,6-6.9,6
	s-6.4-2.6-6.9-6H72.1z M74.2,33h5.6c-0.4,1.2-1.5,2-2.8,2S74.6,34.2,74.2,33z M70.1,31c0.5-3.4,3.4-6,6.9-6s6.4,2.6,6.9,6H70.1z
	 M76,23.1c-4.5,0.5-8,4.3-8,8.9c0,0.3,0,0.5,0,0.8c-0.4,0.9-0.7,1.7-0.9,2.6c-0.2-1.4-0.1-2.8,0.4-4.2C70.7,21,78.2,14.5,87,14v5.1
	C83.1,19.4,79.3,20.8,76,23.1z M68,9.3c1.1,0.7,3.1,3,6,8c-1.8,1.5-3.4,3.4-4.8,5.5C68.5,18.1,68.2,11.9,68,9.3z M106.8,22.8
	c-1.4-2.1-3-4-4.8-5.5c2.9-5,5-7.2,6-8C107.8,11.9,107.5,18.1,106.8,22.8z M111.8,2c0.5,9.5,0,22.4-2.6,25.4c-0.3-0.7-0.6-1.3-0.9-2
	c1.4-6.1,1.7-16.9,1.7-17.3l0-0.7l-0.7-0.2c-0.8-0.3-3.1-1.1-9,8.9c-0.7-0.5-1.5-1-2.2-1.4C102.5,8.7,108.3,2.5,111.8,2z M64.2,2
	c3.5,0.4,9.3,6.7,13.7,12.6c-0.8,0.4-1.5,0.9-2.2,1.4c-5.8-9.9-8.2-9.1-9-8.9L66,7.3l0,0.7c0,0.5,0.3,11.3,1.7,17.3
	c-0.3,0.6-0.6,1.3-0.9,2C64.2,24.5,63.6,11.5,64.2,2z M46.9,63.3c0-0.1-0.1-0.1-0.1-0.2c3.5-2.2,6.5-4.3,9.1-6.3
	c1.8,6.7,6.3,13.1,11.3,17.7C62.1,76.5,53.3,71.7,46.9,63.3z M40.8,66.9c1.5-0.9,3-1.8,4.3-2.7c0.1,0.1,0.2,0.2,0.2,0.3
	c3,3.9,6.4,7,9.8,9.1c-0.6,1.9-1.6,3.8-2.9,5.4C47.7,76.4,42.5,75,37,75c-2.6,0-5.1,0.3-7.5,0.9C32.5,72.6,36.3,69.6,40.8,66.9z
	 M31.6,95.9c-1.8-4.4-1.7-6.6-1.4-6.9c0,0,0.2,0,0.5,0c6.5,1.8,8.5,0.6,10.6-1.2c1.1-1,2.1-1.8,4.7-1.8c4.3,0,6.6,3,7.7,5.7
	C50.4,94.9,45,97,39,97C36.4,97,33.9,96.6,31.6,95.9z M55.1,90c-1.9-3.9-5.1-6-9.1-6c-3.3,0-4.8,1.2-6,2.3c-1.5,1.3-2.8,2.4-8.8,0.8
	c-1.4-0.4-2.2,0.2-2.5,0.6c-1.2,1.4-0.6,4.4,0.4,7.3c-3.6-1.7-6.4-4.2-7.5-7.3c1.4-3,3.2-6,5.5-8.8c3.2-1.2,6.5-1.8,10-1.8
	c7.6,0,14.6,2.9,19.9,8.2C56.8,86.9,56.1,88.6,55.1,90z M2,111c0-5.5,5.4-10,12-10c0.5,0,1,0,1.5,0.1c-0.3,2.4-0.5,4.8-0.5,7
	c-5.3,0.6-9.6,3.8-11.3,8C2.6,114.7,2,112.9,2,111z M5.3,117.9c1-4,4.9-7.1,9.7-7.7c0.2,4.2,0.8,7.8,1.8,10.6
	c-0.9,0.2-1.8,0.3-2.8,0.3C10.6,121,7.5,119.8,5.3,117.9z M18.8,120.4c-2.3-6.4-3.1-18.4,1.7-30.4c3,5.4,10.2,9,18.5,9
	c9.9,0,18-5.1,19.7-11.9c1.5,1.8,2.8,3.7,3.7,5.8c1.1,2.3,1.9,4.8,2.3,7.4c0.2,1.4,0.3,2.8,0.3,4.2c0,2.2-0.3,4.4-0.8,6.6
	c-0.2,0-0.5-0.1-0.7-0.1c-5.2,0-9.5,4.6-9.5,10.3c0,0.9,0.1,1.8,0.3,2.7H24C21.6,124,19.6,122.6,18.8,120.4z M71,121.3
	c0,0.9-0.1,1.8-0.4,2.7H68l0-7l-2,0l0,7h-4v-7h-2v7h-3.2h-0.4c-0.3-0.9-0.4-1.8-0.4-2.7c0-4.6,3.4-8.3,7.5-8.3c1.4,0,2.8,0.4,4,1.3
	C69.7,115.8,71,118.4,71,121.3z M79.9,95.6c-5.7,5.8-9.9,11.3-12.5,16.3c-0.4-0.2-0.8-0.4-1.3-0.5c0.6-2.3,0.8-4.6,0.8-6.9
	c0-1.5-0.1-3.1-0.3-4.5c-0.4-2.8-1.3-5.4-2.5-7.9c-1.4-2.9-3.2-5.6-5.5-7.9c-1.5-1.5-3.1-2.9-4.8-4c1.3-1.7,2.3-3.5,3-5.4
	c2.8,1.5,5.5,2.3,7.9,2.3c1.5,0,2.9-0.3,4-1c3.8,3.1,7.7,5.2,11.2,5.8L79.9,95.6L79.9,95.6z M91.8,124H90l0-7l-2,0l0,7h-4l0-7l-2,0
	l0,7h-3.6c-0.3-0.9-0.4-1.8-0.4-2.7c0-4.6,3.4-8.3,7.5-8.3c1.4,0,2.8,0.4,4,1.3c2.2,1.5,3.5,4.2,3.5,7c0,0.9-0.1,1.8-0.4,2.7H91.8z
	 M101,121.3c0,0.9-0.1,1.8-0.4,2.7H98l0-7l-2,0l0,7h-1.3c0.2-0.9,0.3-1.8,0.3-2.7c0-3.1-1.3-6-3.5-8c2-0.6,4.3-0.3,6,1
	C99.7,115.8,101,118.4,101,121.3z M96,111.4c-1.6-0.5-3.4-0.5-5,0V87.9c1.9-1.9,3.5-3.8,5-5.8V111.4z M91,85v-5.3
	c4-2.2,7.4-6,10.3-11.4C99.3,73.7,96.1,79.4,91,85z M103.8,56.4c-3.3,11.3-8.1,18.7-14.3,21.8L89,78.5v33.2
	c-1.1-0.5-2.3-0.7-3.5-0.7c-1.2,0-2.4,0.3-3.5,0.7V80l-0.9-0.1c-8.2-0.8-20.7-12.4-23.5-24.4c6.2-4.8,9.9-8.7,12.2-11.6l4.3,5
	c-0.1,1.4,0.4,2.7,1.4,3.7c2,1.9,4,2.6,6.1,2.2c1.7,1.3,4,2.1,6.4,2.1c2.4,0,4.7-0.8,6.4-2.1c0.4,0.1,0.7,0.1,1.1,0.1
	c1.7,0,3.4-0.8,5.1-2.3c1-1,1.5-2.3,1.4-3.7l1.7-2C104,49.7,104.1,52.9,103.8,56.4z M82.3,43.1c0.1,0.2,0.3,0.4,0.5,0.5l3.8,2.9
	c0.2,0.2,0.5,0.3,0.7,0.4l-0.2,0.4c0,0-2.4,5-5.9,5.6c-1.5,0.3-2.9-0.3-4.4-1.7c-0.7-0.7-1-1.5-0.7-2.5
	C76.5,46.9,78.6,44.5,82.3,43.1z M93.3,43.6c0.2-0.2,0.3-0.3,0.5-0.5c3.6,1.4,5.8,3.8,6.2,5.6c0.2,1,0,1.9-0.7,2.5
	c-1.5,1.4-3,2-4.4,1.7c-3.4-0.6-5.8-5.6-5.9-5.6l-0.2-0.4c0.3-0.1,0.5-0.2,0.7-0.4L93.3,43.6z M88,49.7c0.8,1.3,2.3,3.2,4.1,4.3
	c-1.2,0.6-2.6,1-4.1,1c-1.5,0-2.9-0.4-4.1-1C85.7,52.9,87.2,51.1,88,49.7z M88.2,44.9c-0.1,0.1-0.3,0.1-0.4,0l-3.6-2.8
	c2.1-1.5,5.6-1.5,7.7,0L88.2,44.9z M101.3,46.7c-1.3-2.5-4.3-4.7-7.9-5.9c-0.1,0-0.1-0.1-0.2-0.1c-2.9-2.3-7.6-2.3-10.5,0l0,0
	c-0.1,0-0.1,0.1-0.2,0.1C79,42,76,44.2,74.7,46.7l-5.5-6.4c-0.4-0.4-0.7-0.9-0.9-1.3c0.1-1,0.4-2,0.6-2.9c1.5,2.9,4.5,5,8,5
	c5,0,9-4,9-9c0-4.1-2.8-7.6-6.6-8.7C82.1,22,85,21.2,88,21c3,0.1,6,0.9,8.6,2.3C92.8,24.4,90,27.9,90,32c0,5,4,9,9,9
	c3.5,0,6.5-2,8-5c0.3,1,0.5,2,0.6,3c-0.3,0.5-0.6,0.9-0.9,1.3L101.3,46.7z"/>
</svg>
