<?xml version="1.0" encoding="utf-8"?>
<!-- Generator: Adobe Illustrator 24.2.1, SVG Export Plug-In . SVG Version: 6.00 Build 0)  -->
<svg version="1.1" id="Layer_1" xmlns="http://www.w3.org/2000/svg" xmlns:xlink="http://www.w3.org/1999/xlink" x="0px" y="0px"
	 viewBox="0 0 118 126" style="enable-background:new 0 0 118 126;" xml:space="preserve">
<style type="text/css">
	.st0{fill:#FFFFFF;}
</style>
<path class="st0" d="M102.6,17.3c1.1-6.1-0.1-15.1-0.3-16.4L102.1,0h-0.9c-7.3,0-11.2,6.2-12.9,10.2c-1.1,0.2-2.2,0.6-3.2,0.9
	c-1.5,0.5-2.8,1-4.2,1s-2.7-0.5-4.2-1c-1-0.4-2.1-0.7-3.2-0.9C71.9,6.2,68.1,0,60.8,0h-0.9l-0.1,0.9c-0.2,1.3-1.4,10.3-0.3,16.4
	c-8.8,3.2-15,12.1-15.4,22.2c-10,9.7-25.2,29.4-28.4,60.1c-0.7-2.6-1.3-5.2-1.6-7.7c-1.1-9.3,1.4-16.6,3.2-22
	c1.5-4.6,2.6-7.9,0.4-9.7c-1.4-1.2-3.1-1.4-4.8-0.7c-6.2,2.7-12,17.7-12.7,33.5c-0.6,11.3,2,20.1,4.3,25.5c2,4.6,6.5,7.6,11.5,7.6
	h6.6v0c0.1,0,0.2,0,0.3,0h45.3h2.2h13.4h2.2h10l0.3-0.6c0.5-1.3,0.8-2.7,0.8-4.1c0-3.3-1.5-6.3-4-8.2v-16c7.5-2.4,12.6-8.8,13-16.3
	c5.1-4.9,8-11.6,8-18.8c0-2.8-0.5-5.6-1.4-8.3l-0.1-0.3c0.3-1.6,0.4-3.2,0.4-4.9c0-1.5-0.1-2.9-0.3-4.3c0.9,1.4,1.6,3,2.1,4.6
	l0.9,2.9l1-2.9c0.9-2.7,1.3-5.4,1.3-8.3C118,29.9,111.7,20.5,102.6,17.3z M100.4,2c0.8,5.8,1.1,14.4-0.6,17.7
	c-0.2-0.3-0.4-0.6-0.5-0.9c1.4-3.9,0.4-12.9,0.3-14L99.5,4h-0.9c-3,0-5.6,2.2-7.3,6.3c-0.2-0.1-0.4-0.2-0.6-0.2
	C92.4,6.4,95.4,2.4,100.4,2z M97.7,16.7c-1.6-2.1-3.3-4-4.8-5.2c0.9-2.3,2.4-4.8,4.7-5.3C97.9,8.8,98.2,13.7,97.7,16.7z M85.8,13
	c1.5-0.5,2.8-1,4.2-1c1.5,0,6.6,5.7,9.3,10.8c-0.5,0.4-1,0.7-1.5,1C96.4,21.5,93.9,20,91,20c-1.7,0-3.4,0.6-4.7,1.5
	c-1.5-1.7-2.3-3.9-2.3-6.3c0-0.5,0.1-1.1,0.2-1.7C84.7,13.4,85.3,13.2,85.8,13z M91,22c3,0,5.4,2.2,5.9,5H85.1
	C85.6,24.2,88,22,91,22z M93.8,29c-0.4,1.2-1.5,2-2.8,2s-2.4-0.8-2.8-2H93.8z M86.1,29c0.5,2.3,2.5,4,4.9,4s4.4-1.7,4.9-4h1
	c-0.5,2.8-2.9,5-5.9,5s-5.4-2.2-5.9-5H86.1z M82.1,14c0,0.4-0.1,0.8-0.1,1.2c0,2.9,1,5.5,2.9,7.6C83.7,24.3,83,26.1,83,28
	c0,4.4,3.6,8,8,8s8-3.6,8-8c0-0.8-0.1-1.6-0.4-2.4c0.6-0.3,1.1-0.6,1.6-1c0.5,1.2,0.8,2.4,0.8,3.3c0,2.3-3.8,7.5-10.3,14
	c-1-1.1-2.8-2.2-5.2-3.3c-0.1-0.1-0.2-0.2-0.2-0.2c-2.4-1.9-6.2-1.9-8.7,0c-0.1,0.1-0.2,0.1-0.2,0.2c-2.4,1.1-4.1,2.2-5.2,3.3
	C64.8,35.4,61,30.2,61,27.9c0-1,0.3-2.1,0.8-3.3c0.5,0.4,1,0.7,1.6,1C63.1,26.4,63,27.2,63,28c0,4.4,3.6,8,8,8s8-3.6,8-8
	c0-1.9-0.7-3.7-1.9-5.1c1.8-2.1,2.9-4.8,2.9-7.6c0-0.4,0-0.8-0.1-1.2c0.4,0,0.7,0.1,1.1,0.1S81.7,14.1,82.1,14z M76.4,40.9
	c0.1,0.1,0.1,0.2,0.2,0.2l2.8,2.3c-1.4,1.8-3.4,3.7-4.9,3.6c-0.9,0-1.7-0.7-2.4-1.9C72,44.8,72,44.6,72,44.3
	C72.2,43.8,72.9,42.6,76.4,40.9z M81,42l-2.7-2.2c1.6-1,4-1.1,5.6,0L81,42z M81,44.7c0.8,1.1,2.1,2.5,3.5,3.4
	c-0.7,1.1-2,1.9-3.5,1.9c-1.5,0-2.9-0.8-3.5-1.9C78.9,47.2,80.2,45.8,81,44.7z M82.5,43.4l2.8-2.3c0.1-0.1,0.2-0.1,0.2-0.2
	c3.5,1.7,4.2,2.9,4.4,3.4c0.1,0.3,0.1,0.5-0.1,0.8c-0.7,1.2-1.5,1.9-2.4,1.9C85.9,47.1,83.9,45.2,82.5,43.4z M64.3,6.1
	c2.3,0.5,3.8,3,4.7,5.3c-1.5,1.2-3.2,3.1-4.8,5.2C63.8,13.7,64.1,8.8,64.3,6.1z M76.9,27H65.1c0.5-2.8,2.9-5,5.9-5
	S76.4,24.2,76.9,27z M66.1,29c0.5,2.3,2.5,4,4.9,4s4.4-1.7,4.9-4h1c-0.5,2.8-2.9,5-5.9,5s-5.4-2.2-5.9-5H66.1z M68.2,29h5.6
	c-0.4,1.2-1.5,2-2.8,2S68.6,30.2,68.2,29z M77.8,13.6c0.1,0.6,0.2,1.1,0.2,1.7c0,2.3-0.8,4.5-2.3,6.3c-1.3-1-2.9-1.5-4.7-1.5
	c-2.9,0-5.4,1.5-6.8,3.8c-0.5-0.3-1.1-0.6-1.5-1C65.4,17.7,70.5,12,72,12c1.3,0,2.7,0.5,4.2,1C76.7,13.2,77.3,13.4,77.8,13.6z
	 M61.6,2c5,0.4,8,4.3,9.8,8.1c-0.2,0.1-0.4,0.1-0.6,0.2C69.1,6.2,66.5,4,63.4,4h-0.9l-0.1,0.9c-0.1,1.1-1.1,10,0.3,14
	c-0.2,0.3-0.4,0.6-0.5,0.9C60.5,16.4,60.9,7.8,61.6,2z M44.1,42.2c0.1,2.3,0.6,4.5,1.3,6.6l1,2.9l0.9-2.9c0.5-1.6,1.2-3.2,2.1-4.6
	C49.1,45.6,49,47,49,48.5c0,1.7,0.2,3.3,0.5,4.9l-0.1,0.3C48.5,56.4,48,59.2,48,62c0,8.7,4.3,16.7,11.5,21.6l1.7,1.2L61,82.6
	c0-0.2,0-0.4,0-0.6c0-2.1,0.8-4.2,2.1-5.8c0.8,3.7,2.1,7.2,3.7,10.4c1.1,2.1,2.3,4.1,3.7,5.9c2.9,3.7,6.2,6.6,10,8.6l0.5,0.2
	l0.5-0.2c0.2-0.1,0.4-0.2,0.5-0.3v11.6c-1.5-0.9-3.2-1.4-5-1.4c-2.2,0-4.3,0.8-6,2.1V94l-1,0C56.2,93.6,40,73.5,36,51.7
	C38.8,48,41.5,44.8,44.1,42.2z M54,117l0,7h-4l0-7l-2,0l0,7h-3.5c-0.3-0.9-0.4-1.8-0.4-2.7c0-4.6,3.6-8.3,8-8.3c1.5,0,3,0.5,4.3,1.3
	c2.3,1.5,3.7,4.2,3.7,7c0,0.9-0.2,1.8-0.4,2.7H56l0-7L54,117z M59.6,114.7c0.2-1.5,0.4-3.1,0.4-4.7c0-17.1-13.9-31-31-31
	c-2.5,0-4.9,0.3-7.3,0.9c3.3-10.5,7.9-19.1,12.7-25.9c4.7,21.7,20.4,40.7,34.6,42v19.2c-1.2,1.7-2,3.8-2,6.2c0,0.9,0.1,1.8,0.4,2.7
	h-5.7c0.2-0.9,0.4-1.8,0.4-2.7C62,118.8,61.1,116.5,59.6,114.7z M15.9,124c-4.2,0-8-2.5-9.7-6.4C4,112.4,1.5,103.9,2.1,93
	c0.8-16.1,6.7-29.6,11.5-31.7c1-0.4,1.9-0.3,2.8,0.4c1.2,1,0.2,3.7-1,7.5c-1.9,5.6-4.4,13.2-3.3,22.9c0.5,4,1.5,8.3,3.1,12.7
	c-0.2,4.5-0.3,9.2,0.1,14.2c0.1,2,1,3.8,2.4,5H15.9z M17.2,118.8C16.3,104.8,18,92.6,21,82.1c2.6-0.7,5.3-1.1,8-1.1
	c16,0,29,13,29,29c0,1-0.1,2-0.2,2.9c-0.1-0.1-0.3-0.2-0.4-0.3c-1.6-1.1-3.5-1.6-5.4-1.6c-5.5,0-10,4.6-10,10.3
	c0,0.9,0.1,1.8,0.4,2.7H22.8C19.9,124,17.4,121.7,17.2,118.8z M83.7,124H81l0-7h-2l0,7h-4l0-7l-2,0l0,7h-2.7h-0.9
	c-0.3-0.9-0.4-1.8-0.4-2.7c0-4.6,3.6-8.3,8-8.3c1.5,0,3,0.5,4.3,1.3c2.3,1.5,3.7,4.2,3.7,7c0,0.9-0.1,1.8-0.4,2.7H83.7z M95,121.3
	c0,0.9-0.1,1.8-0.4,2.7H91l0-7h-2l0,7h-2.4c0.2-0.9,0.4-1.8,0.4-2.7c0-2.8-1.1-5.4-3-7.3v-0.4c2.4-1,5.1-0.7,7.3,0.7
	C93.6,115.8,95,118.5,95,121.3z M91.7,95.4L91,95.6v16.3c-2.2-1-4.7-1.1-7-0.4V99.6c2.8-1.8,5.3-4.2,7.5-7.1
	c1.4-1.8,2.6-3.7,3.7-5.9c1.7-3.2,2.9-6.7,3.7-10.4c1.3,1.6,2.1,3.6,2.1,5.8c0,0.2,0,0.4,0,0.6l-0.2,2.1l1.7-1.2
	c0.4-0.3,0.8-0.6,1.2-0.9C102.7,88.7,98.1,93.6,91.7,95.4z M112,62c0,7.4-3.4,14.3-9.1,18.8c-0.3-2.9-1.7-5.5-4-7.3l-1.3-1.1
	L97.3,74c-0.7,4.2-2.1,8.1-3.9,11.7c-1,2-2.2,3.9-3.5,5.6c-2.6,3.3-5.6,6-8.9,7.8c-3.4-1.8-6.3-4.5-8.9-7.8
	c-1.3-1.7-2.5-3.5-3.5-5.6c-1.8-3.6-3.1-7.5-3.9-11.7l-0.3-1.7l-1.3,1.1c-2.3,1.8-3.7,4.5-4,7.3C53.4,76.3,50,69.4,50,62
	c0-1.6,0.2-3.2,0.5-4.8c0.1,0.2,0.1,0.4,0.2,0.6c1.5,4.1,4.1,7.6,7.3,10.3l3,2.4L59.6,67C59.2,66,59,65,59,64c0-0.6,0.1-1.1,0.2-1.6
	c0.3-1.5,1-2.9,2.1-4c0.7,2,1.7,4,3,6.1c1.6,2.5,3.5,5.1,6.2,8.1l0,0c0.5,0.6,1.7,1.9,5,5.5c1.8,2,3.5,3.8,4.7,5.5l0.8,1.1l0.8-1.1
	c1.2-1.6,2.9-3.5,4.7-5.5c3.3-3.6,4.6-4.9,5-5.5l0,0c2.7-3,4.6-5.6,6.2-8.1c1.3-2.1,2.3-4.1,3-6.1c1.1,1.1,1.8,2.5,2.1,3.9
	c0.1,0.5,0.2,1.1,0.2,1.6c0,1-0.2,2-0.6,3l-1.4,3.6l3-2.4c3.3-2.7,5.8-6.2,7.3-10.3c0.1-0.2,0.1-0.4,0.2-0.6
	C111.8,58.8,112,60.4,112,62z M115.5,45.3c-1.1-2.4-2.6-4.6-4.4-6.5l-3.4-3.5l1.8,4.6c1,2.7,1.6,5.6,1.6,8.6s-0.5,5.9-1.6,8.6
	c-1,2.7-2.5,5.2-4.5,7.3c0-0.1,0-0.3,0-0.4c0-0.7-0.1-1.4-0.2-2c-0.5-2.5-1.9-4.6-4-6.1l-1.1-0.8l-0.4,1.4c-0.7,2.2-1.7,4.6-3.2,7
	c-1.5,2.4-3.4,4.9-6,7.9L90,71.4c-0.5,0.5-3.5,3.9-4.9,5.4c-1.5,1.6-2.9,3.1-4,4.6c-1.1-1.4-2.6-3-4-4.6c-1.4-1.6-4.5-4.9-4.9-5.4
	L72,71.3c-2.6-2.9-4.5-5.4-6-7.9c-1.5-2.4-2.6-4.8-3.2-7l-0.4-1.4l-1.1,0.8c-2.1,1.5-3.5,3.6-4,6.1c-0.1,0.7-0.2,1.3-0.2,2
	c0,0.1,0,0.3,0,0.4c-1.9-2.1-3.4-4.6-4.5-7.3c-1-2.7-1.6-5.6-1.6-8.6s0.5-5.9,1.6-8.6l1.8-4.6l-3.4,3.5c-1.8,1.9-3.3,4.1-4.4,6.5
	c-0.3-1.6-0.5-3.2-0.5-4.8c0-9.6,5.7-18.2,13.9-21.3c0.3,1,0.7,1.8,1.2,2.4C59.8,24,59,26.3,59,27.9c0,3,3.8,8.3,11.1,15.7
	c-0.3,0.8-0.2,1.7,0.3,2.4c1.1,1.9,2.5,2.8,4.1,2.9c0,0,0.1,0,0.1,0c0.3,0,0.6,0,1-0.1c1,1.9,3.1,3.1,5.4,3.1c2.3,0,4.4-1.2,5.4-3.1
	c0.3,0.1,0.6,0.1,1,0.1c0,0,0.1,0,0.1,0c1.6-0.1,3-1,4.1-2.9c0.4-0.8,0.5-1.6,0.3-2.4c7.4-7.5,11.1-12.8,11.1-15.7
	c0-1.6-0.8-3.9-2.1-6.3c0.5-0.6,0.9-1.5,1.2-2.4c8.2,3.1,13.9,11.7,13.9,21.3C116,42.1,115.8,43.8,115.5,45.3z"/>
</svg>
