<?xml version="1.0" encoding="utf-8"?>
<!-- Generator: Adobe Illustrator 24.2.1, SVG Export Plug-In . SVG Version: 6.00 Build 0)  -->
<svg version="1.1" id="Layer_1" xmlns="http://www.w3.org/2000/svg" xmlns:xlink="http://www.w3.org/1999/xlink" x="0px" y="0px"
	 viewBox="0 0 124 126" style="enable-background:new 0 0 124 126;" xml:space="preserve">
<style type="text/css">
	.st0{fill:#FFFFFF;}
</style>
<g>
	<path class="st0" d="M114.3,32.9l-0.4-0.4c-0.8-2-1.8-4-2.9-5.8c3.1-5,3.8-15.4,3.8-17.3c0-3.1,3.7-5.3,3.8-5.3l1.6-0.9l-1.6-0.8
		c-4.8-2.6-9.4-3.1-13.5-1.5c-6.4,2.4-9.7,9-10.6,11.2c-2-0.7-4.2-1.1-6.4-1.1s-4.3,0.4-6.4,1.1C80.7,9.9,77.4,3.3,71,0.9
		c-4.1-1.6-8.7-1.1-13.5,1.5l-1.6,0.8l1.6,0.9c0,0,3.8,2.2,3.8,5.3c0,1.9,0.7,12.3,3.8,17.3c-1.1,1.8-2.1,3.8-2.9,5.8L62,32.6
		c-3.9,3.7-6.7,8.4-8.4,13.6c-1.4,0.7-3,1.6-4.7,2.8H41c-13.1,0-21.3,5.5-24.5,16.5c0-0.4,0-0.9,0-1.5c0-0.6,0-1.2,0.1-1.7l0.2-2.8
		l-1.9,2C8.7,67.7,5.2,76.7,5.2,86c0,1.4,0.1,2.8,0.2,4.1c0.7,6.1,2.8,11.8,6.2,16.5c-3.5-2.4-6.5-5.6-8.8-9.4l-1.1-1.9L1,97.4
		c-0.7,2.1-1,4.3-1,6.6c0,9.5,6.3,18.1,16.1,21.9l0.2,0.1h13.2h1h21.5h17.9h4.1H76h13.5h2.5h10l0.3-0.6c0.5-1.3,0.8-2.7,0.8-4.1
		c0-3.5-1.7-6.7-4.6-8.7c-0.2-0.1-0.4-0.2-0.5-0.3c9.3-4.8,20.1-19.3,20.1-30.8c0-3.4-0.4-6.8-1.1-10c0.5,0.6,0.9,1.3,1.2,1.9
		l0.8,1.8l1-1.8c1.3-2.3,2.3-4.9,3-7.5c0.8-2.9,1.2-6,1.2-9.1C124,47.7,120.5,39,114.3,32.9z M105.7,2.8c3.1-1.2,6.6-1,10.4,0.7
		c-1.4,1.2-3.3,3.2-3.3,6c0,2.7-0.8,10.9-3,15.4c-0.5-0.8-1.1-1.6-1.7-2.3c1.8-4.9,2.1-11.8,2.1-13.3c0-0.7,0.2-1.4,0.6-2.1l0.9-1.6
		l-1.9,0.1c-3,0.2-8.5,1.6-12.2,7.9c-0.5-0.3-1-0.5-1.5-0.7C97.1,10.8,100.2,4.8,105.7,2.8z M99.5,14.5c2.6-4.5,6.3-6.1,9-6.6
		c-0.1,0.5-0.2,0.9-0.2,1.4c0,1.7-0.4,7.2-1.7,11.5C104.5,18.2,102.1,16.1,99.5,14.5z M112.5,33.9L112.5,33.9L112.5,33.9
		c1.4,3.7,2.3,7.7,2.5,11.9c-2.1-2.3-5.1-3.7-8.3-3.7c-2.7,0-5.2,0.9-7.2,2.7C97.3,42.8,92.8,39,89,39H87c-3.8,0-8.3,3.8-10.4,5.9
		c-2-1.7-4.6-2.7-7.2-2.7c-3.2,0-6.2,1.4-8.3,3.7c0.2-4.2,1.1-8.2,2.5-11.9l0.1-0.1l-0.1-0.1C68.4,21.5,78.9,13,88,13
		C97.2,13,107.7,21.6,112.5,33.9z M110.7,68.5c0.2,1.3,0.3,2.7,0.3,4.2c0,4.9-2.6,8.3-5.7,12.3c-1.5,1.9-2.9,3.8-4.3,6.1
		c-1.1-1.8-2.3-3.4-3.3-4.8c3.6-5.8,6.3-11.2,6.3-18.9c0,0,0-0.1,0-0.1c0.8,0.3,1.5,0.5,2.3,0.7C107.7,68.2,109.2,68.4,110.7,68.5z
		 M102,66.3c0,0.3,0,0.6,0,0.9c0,8.4-3.6,14.2-7.9,20.8c-2.1,3.3-4.2,6.6-6.1,10.6c-1.9-4-4.1-7.3-6.1-10.6
		C77.6,81.4,74,75.7,74,67.3c0-0.3,0-0.6,0-0.9c4.9-2.2,9.2-5.9,12.4-10.7C87.3,56,87.8,56,88,56c0.4,0,1-0.1,1.6-0.4
		C92.8,60.4,97.1,64.1,102,66.3z M65.3,68.5c1.5-0.1,2.9-0.3,4.4-0.7c0.8-0.2,1.5-0.4,2.3-0.7c0,0,0,0.1,0,0.1
		c0,7.7,2.8,13.2,6.3,18.9c-1.1,1.4-2.2,3-3.3,4.8c-1.4-2.3-2.9-4.2-4.3-6.1c-3-3.9-5.7-7.3-5.7-12.3C65,71.2,65.1,69.8,65.3,68.5z
		 M77.5,46.7c1.6-1.6,3.6-3.2,5.5-4.3c0.1,0.4,0.2,0.8,0.6,1.2l3.1,2.9c0,0,0.1,0,0.1,0.1c-0.5,1-1,2.1-1.6,2.9l-0.3,0.4
		C83,52.6,82,54,78.8,54c-1.5,0-2.2-1.2-2.5-1.8C75.7,50.7,75.8,48.4,77.5,46.7z M88,45l-3-2.9c0.8-0.8,1.9-1.1,2.9-1.1h0
		c1.1,0,2.1,0.4,2.9,1.1L88,45z M88,54c-0.1,0-0.8,0-2.7-1.3c0.4-0.5,0.8-1.1,1.2-1.7l0.3-0.4c0.4-0.6,0.8-1.3,1.2-2.1
		c0.4,0.7,0.8,1.4,1.2,2.1l0.3,0.4c0.4,0.6,0.8,1.2,1.2,1.7C88.8,54,88.1,54,88,54z M91.2,49.9l-0.3-0.4c-0.6-0.8-1.1-1.9-1.6-2.9
		c0,0,0.1,0,0.1-0.1l3-2.9c0.3-0.3,0.5-0.7,0.6-1.2c1.9,1.1,3.9,2.8,5.5,4.3c1.7,1.6,1.8,4,1.2,5.4c-0.3,0.7-1,1.8-2.5,1.8
		C94,54,93,52.6,91.2,49.9z M69.4,20.7c-1.2-4.2-1.7-9.7-1.7-11.5c0-0.5-0.1-0.9-0.2-1.4c2.7,0.5,6.3,2.1,9,6.6
		C73.9,16.1,71.5,18.2,69.4,20.7z M63.3,9.4c0-2.7-1.9-4.8-3.3-6c3.7-1.7,7.2-1.9,10.4-0.7c5.5,2.1,8.6,8,9.5,10
		c-0.5,0.2-1,0.5-1.5,0.7c-3.7-6.3-9.2-7.7-12.2-7.9l-1.9-0.1l0.9,1.6c0.4,0.7,0.6,1.4,0.6,2.1c0,1.5,0.4,8.3,2.1,13.3
		c-0.6,0.7-1.1,1.5-1.7,2.3C64,20.3,63.3,12.1,63.3,9.4z M59.1,49.2l0.2,3.9l1.7-3.5c1.6-3.3,4.8-5.4,8.4-5.4c2.2,0,4.2,0.8,5.9,2.2
		c-1.3,1.9-1.6,4.4-0.8,6.5c0.8,1.9,2.4,3.1,4.4,3.1c2.4,0,3.9-0.7,5.1-1.8c0.2,0.2,0.5,0.3,0.7,0.4c-3.8,5.7-9.3,9.7-15.4,11.2
		c-1.9,0.5-3.8,0.7-5.7,0.7c-2.5,0-4.9,2.2-6.4,4.4c-0.8-1.7-1.5-3.6-2-5.4c-0.7-2.8-1.1-5.6-1.1-8.6c0-7.3,2.3-14.2,6.5-19.6
		c-1,3.4-1.5,6.8-1.5,10.2C59,48.1,59,48.7,59.1,49.2z M53.2,66c0.7,2.6,1.7,5.2,3,7.5l1,1.8l0.8-1.8c1-2.2,3.4-4.6,5.3-4.8
		c-0.2,1.3-0.3,2.7-0.3,4.1c0,5.6,3,9.4,6.1,13.5c1.7,2.2,3.5,4.5,5,7.3l0.9,1.6l0.9-1.6c1.1-2.1,2.4-3.9,3.6-5.5
		c0.2,0.4,0.5,0.7,0.7,1.1c2.4,3.7,4.8,7.6,6.9,12.3l0.9,2.1l0.9-2.1c2.1-4.7,4.5-8.6,6.9-12.3c0.2-0.4,0.5-0.8,0.7-1.1
		c1.2,1.6,2.5,3.4,3.6,5.5l0.9,1.6l0.9-1.6c1.5-2.8,3.3-5.1,5-7.3c1.4-1.8,2.8-3.6,3.9-5.5c0.1,4.9-0.8,9.5-2.7,12.9
		c-5,9.2-13.4,17.3-19.7,19.1c-1.6-1.1-3.5-1.6-5.4-1.6c-1.5,0-2.9,0.3-4.2,1c-3.1-0.8-5.8-2-7.6-3.3c-2.3-1.7-4.4-3.9-6.3-6.5
		c-3.1-4.2-5.5-9.3-7.1-14.9L57.5,86l-1.1,0.6c-4.2,2.2-7,6.4-7.4,11.1c-6.9-5.3-11.1-14.8-11.1-25.2c0-3.9,0.6-7.7,1.8-11.4l-0.1,0
		c3.6-5,7.9-9.3,13.3-12.2c-0.6,2.6-0.9,5.3-0.9,8.1C52,60,52.4,63,53.2,66z M60.9,111c-0.4-7-3.2-13.6-7.9-18.8
		c0.9-1.3,2-2.4,3.3-3.2c1.6,5.3,4.1,10.3,7,14.3c2,2.8,4.3,5.1,6.7,7c1.6,1.2,3.9,2.3,6.5,3.1c-2.2,1.9-3.6,4.7-3.6,7.9
		c0,0.9,0.1,1.8,0.4,2.7h-2.7c0.2-0.9,0.4-1.8,0.4-2.7c0-3.5-1.7-6.7-4.6-8.7C64.8,111.6,62.9,111,60.9,111C61,111,61,111,60.9,111z
		 M37.3,82.8c-2.5-0.6-5-0.9-7.5-0.9c1.7-5.5,3.9-10.9,6.6-15.8c-0.3,2.1-0.5,4.2-0.5,6.3C35.9,76.1,36.4,79.6,37.3,82.8z M41.2,51
		l7.1-1.5c-7,5.1-16.2,15.4-21.7,35.5c-0.1-0.5-0.2-1-0.3-1.5c-0.3-1.4-0.4-2.9-0.4-4.5C25.8,63.7,33.8,52.6,41.2,51z M23.2,102.4
		c-2.5-5-3.8-10.6-3.8-16.4c0-8.1,2.6-15.9,7.1-21.7c-1.8,4.7-2.7,9.9-2.7,14.7c0,1.7,0.2,3.3,0.5,4.9c0.3,1.6,0.8,3.2,1.4,4.7
		C24.7,92.8,23.9,97.4,23.2,102.4z M16.7,124C7.8,120.4,2,112.6,2,104c0-1.3,0.1-2.6,0.4-3.8c3.4,4.9,7.9,8.7,13,10.8l4.7,1.9
		l-3.6-3.6c-5-5-8.3-11.9-9.1-19.4c-0.1-1.2-0.2-2.5-0.2-3.9c0-7.9,2.6-15.4,7.3-21.1c0,2.3,0.1,3.6,1.1,5.6l1.4,2.7l0.5-3
		c1.7-11.1,7.6-17.3,18-18.8c-2.4,1.7-4.5,4.2-6.2,7.1C21.9,64.8,17.4,75.1,17.4,86c0,7.2,1.9,14.1,5.4,19.9
		c-0.4,3.9-0.7,8-0.8,12.4c-0.1,2,0.7,4,2.1,5.5c0.1,0.1,0.2,0.2,0.3,0.3C24.4,124,16.7,124,16.7,124z M29.5,124
		c-1.5,0-2.9-0.6-4-1.7c-1-1.1-1.6-2.5-1.5-4c0.2-6.5,1.2-20.3,5.2-34.3c3-0.1,6,0.3,8.8,1.1c2.2,6.5,6.2,11.9,11.4,15.3l1.7,1.1
		l-0.2-2.1c0-0.2,0-0.3,0-0.5c0-1.7,0.4-3.4,1.1-4.9c4.1,4.8,6.6,10.8,6.9,17.2c-4.5,1-7.9,5.1-7.9,10.1c0,0.9,0.1,1.8,0.4,2.7H30.5
		H29.5z M65,124v-7h-2v7h-4v-7h-2v7h-3.6c-0.3-0.9-0.4-1.8-0.4-2.7c0-4.6,3.6-8.3,8-8.3c1.5,0,3,0.5,4.3,1.3c2.3,1.5,3.7,4.2,3.7,7
		c0,0.9-0.1,1.8-0.4,2.7H65z M89.5,124H87v-7h-2v7h-4v-7h-2v7h-3h-0.6c-0.3-0.9-0.4-1.8-0.4-2.7c0-4.6,3.6-8.3,8-8.3
		c1.5,0,3,0.5,4.3,1.3c2.3,1.5,3.7,4.2,3.7,7c0,0.9-0.1,1.8-0.4,2.7H89.5z M101,121.3c0,0.9-0.1,1.8-0.4,2.7H97v-7h-2v7h-2.4
		c0.2-0.9,0.4-1.8,0.4-2.7c0-2.7-1-5.3-2.8-7.2c0.8-0.3,1.6-0.7,2.4-1.1l0.4,0c1.5,0,3,0.5,4.3,1.3C99.6,115.8,101,118.5,101,121.3z
		 M95.5,111.2c5.3-3.7,10.7-9.9,14.4-16.8c2.5-4.7,3.4-11,2.6-17.8l-0.1,0c0.3-1.2,0.5-2.6,0.5-4c0-1.4-0.1-2.8-0.3-4.1
		c0.5,0,0.9,0.2,1.4,0.5c1.2,3.9,1.8,8.1,1.8,12.4C116,92.8,104.5,107.7,95.5,111.2z M120.9,65.5c-0.5,1.9-1.2,3.7-2,5.4
		c-1.5-2.1-3.9-4.4-6.4-4.4c-1.9,0-3.8-0.2-5.7-0.7c-6.2-1.5-11.6-5.5-15.4-11.2c0.2-0.1,0.4-0.3,0.7-0.4c1.2,1.1,2.7,1.8,5.1,1.8
		c1.9,0,3.6-1.2,4.4-3.1c0.9-2.1,0.5-4.6-0.8-6.6c1.7-1.4,3.7-2.2,5.9-2.2c3.6,0,6.8,2.1,8.4,5.4l1.7,3.5l0.2-3.9
		c0-0.5,0.1-1.1,0.1-1.7c0-3.3-0.5-6.8-1.5-10.1c4.2,5.4,6.5,12.3,6.5,19.6C122,59.8,121.6,62.7,120.9,65.5z"/>
	<path class="st0" d="M69,32c0,4.4,3.6,8,8,8s8-3.6,8-8s-3.6-8-8-8S69,27.6,69,32z M77,38c-3,0-5.4-2.2-5.9-5h1c0.5,2.3,2.5,4,4.9,4
		s4.4-1.7,4.9-4h1C82.4,35.8,80,38,77,38z M74.2,33h5.6c-0.4,1.2-1.5,2-2.8,2S74.6,34.2,74.2,33z M77,26c3,0,5.4,2.2,5.9,5H71.1
		C71.6,28.2,74,26,77,26z"/>
	<rect x="87" y="14" class="st0" width="2" height="18"/>
	<rect x="81" y="15" class="st0" width="2" height="9"/>
	<path class="st0" d="M99,40c4.4,0,8-3.6,8-8s-3.6-8-8-8s-8,3.6-8,8S94.6,40,99,40z M99,38c-3,0-5.4-2.2-5.9-5h1
		c0.5,2.3,2.5,4,4.9,4s4.4-1.7,4.9-4h1C104.4,35.8,102,38,99,38z M96.2,33h5.6c-0.4,1.2-1.5,2-2.8,2S96.6,34.2,96.2,33z M99,26
		c3,0,5.4,2.2,5.9,5H93.1C93.6,28.2,96,26,99,26z"/>
	<rect x="93" y="15" class="st0" width="2" height="9"/>
</g>
</svg>
